<svg fill="none" height="24" viewBox="0 0 24 24" width="24" xmlns="http://www.w3.org/2000/svg"><path d="m11.9761 12.5281c-.0761.1044-.1403.1903-.202.2771-.9846 1.3988-1.96888 2.7974-2.95285 4.1959-.91537 1.3008-1.8317 2.6009-2.74898 3.9002-.01523.0204-.03473.0375-.05723.0501-.02251.0127-.04753.0206-.07343.0234-1.29504-.0108-2.58977-.0244-3.88418-.0407-.01436 0-.02919-.0042-.05743-.0083.01045-.0261.0226-.0516.03637-.0762.90325-1.3517 1.8065-2.703 2.70974-4.0541.80115-1.1973 1.60278-2.3944 2.40488-3.5911.88889-1.3298 1.7773-2.6606 2.66523-3.99219.13114-.19633.26758-.38896.39198-.58898.0319-.05354.0415-.11681.0268-.17693-.23931-.73634-.48338-1.47083-.72698-2.20533-.10433-.31458-.21345-.62732-.31108-.94375-.03159-.10163-.08376-.13258-.19144-.13212-.81359.00323-1.62239.00231-2.43359.00231-.15411 0-.15458 0-.15458-.1469 0-.9627-.00001-1.92539-.00288-2.88809 0-.10717.03638-.13119.14071-.13119 1.63324.00277 3.26681.00277 4.90074 0 .0379-.00469.0763.00412.108.02478s.0546.05175.0642.08747c.8615 2.09139 1.7229 4.182 2.5844 6.27185 1.005 2.43727 2.01 4.87477 3.0151 7.31257.312.7567.6264 1.5129.9351 2.2714.0369.0924.0752.11.1718.0813.8562-.2554 1.7143-.504 2.57-.7599.1077-.0323.1469-.0106.1804.0924.292.8856.5897 1.7693.8854 2.6539.0101.0305.0177.0614.0297.1039-.0613.0218-.1187.0462-.1776.0619-1.9462.5953-3.8913 1.1909-5.8353 1.7868-.0929.0282-.1206-.0023-.1517-.0776-.5938-1.4523-1.189-2.9041-1.7856-4.3552-.5836-1.4209-1.1675-2.8419-1.7516-4.2628-.0876-.2134-.1738-.4278-.2613-.6412-.0139-.0365-.0331-.0684-.0608-.1247z" fill="#fa7e14"/></svg>